<svg version="1.1" id="Layer_1" xmlns="http://www.w3.org/2000/svg" xmlns:xlink="http://www.w3.org/1999/xlink" x="0px" y="0px"
	 width="100%" viewBox="0 0 420 420" enable-background="new 0 0 420 420" xml:space="preserve">
<path fill="#F0F0F0" opacity="1.000000" stroke="none" 
	d="
M229.000000,421.000000 
	C152.666672,421.000000 76.833351,421.000000 1.000020,421.000000 
	C1.000014,281.000031 1.000014,141.000046 1.000007,1.000058 
	C140.999954,1.000039 280.999908,1.000039 420.999908,1.000019 
	C420.999939,140.999939 420.999939,280.999878 420.999969,420.999908 
	C357.166656,421.000000 293.333344,421.000000 229.000000,421.000000 
M108.500000,177.000000 
	C130.907532,177.000000 153.315063,177.000000 176.225739,177.000000 
	C176.225739,200.772324 176.225739,223.685837 176.225739,246.691650 
	C199.983093,246.691650 223.225052,246.691650 247.156143,246.691650 
	C247.156143,223.358490 247.156143,200.323135 247.156143,176.794891 
	C294.086029,176.794891 340.327087,176.794891 386.708984,176.794891 
	C386.708984,129.712906 386.708984,83.140892 386.708984,36.387398 
	C269.737152,36.387398 153.056702,36.387398 36.321098,36.387398 
	C36.321098,83.347641 36.321098,129.919754 36.321098,177.000000 
	C60.259041,177.000000 83.879524,177.000000 108.500000,177.000000 
M74.500000,246.000000 
	C61.765503,246.000000 49.031006,246.000000 36.330505,246.000000 
	C36.330505,270.063751 36.330505,293.288269 36.330505,316.581329 
	C60.005600,316.581329 83.347771,316.581329 106.669724,316.581329 
	C106.669724,292.936707 106.669724,269.712189 106.669724,246.000000 
	C96.064453,246.000000 85.782227,246.000000 74.500000,246.000000 
M316.000000,305.479950 
	C316.000000,309.224823 316.000000,312.969727 316.000000,316.663696 
	C340.074677,316.663696 363.299652,316.663696 386.574890,316.663696 
	C386.574890,292.982147 386.574890,269.639465 386.574890,246.337357 
	C362.923248,246.337357 339.698212,246.337357 316.000000,246.337357 
	C316.000000,265.943024 316.000000,285.215118 316.000000,305.479950 
M181.636658,387.000000 
	C203.230011,387.000000 224.823349,387.000000 246.626801,387.000000 
	C246.626801,363.091370 246.626801,339.747406 246.626801,316.288147 
	C223.026337,316.288147 199.800049,316.288147 176.287598,316.288147 
	C176.287598,339.801117 176.287598,363.027313 176.287598,386.658508 
	C177.804947,386.776581 179.239517,386.888184 181.636658,387.000000 
z"/>
<path fill="#A56DD9" opacity="1.000000" stroke="none" 
	d="
M108.000000,177.000000 
	C83.879524,177.000000 60.259041,177.000000 36.321098,177.000000 
	C36.321098,129.919754 36.321098,83.347641 36.321098,36.387398 
	C153.056702,36.387398 269.737152,36.387398 386.708984,36.387398 
	C386.708984,83.140892 386.708984,129.712906 386.708984,176.794891 
	C340.327087,176.794891 294.086029,176.794891 247.156143,176.794891 
	C247.156143,200.323135 247.156143,223.358490 247.156143,246.691650 
	C223.225052,246.691650 199.983093,246.691650 176.225739,246.691650 
	C176.225739,223.685837 176.225739,200.772324 176.225739,177.000000 
	C153.315063,177.000000 130.907532,177.000000 108.000000,177.000000 
z"/>
<path fill="#A56DD9" opacity="1.000000" stroke="none" 
	d="
M75.000000,246.000000 
	C85.782227,246.000000 96.064453,246.000000 106.669724,246.000000 
	C106.669724,269.712189 106.669724,292.936707 106.669724,316.581329 
	C83.347771,316.581329 60.005600,316.581329 36.330505,316.581329 
	C36.330505,293.288269 36.330505,270.063751 36.330505,246.000000 
	C49.031006,246.000000 61.765503,246.000000 75.000000,246.000000 
z"/>
<path fill="#A56DD9" opacity="1.000000" stroke="none" 
	d="
M316.000000,304.983582 
	C316.000000,285.215118 316.000000,265.943024 316.000000,246.337357 
	C339.698212,246.337357 362.923248,246.337357 386.574890,246.337357 
	C386.574890,269.639465 386.574890,292.982147 386.574890,316.663696 
	C363.299652,316.663696 340.074677,316.663696 316.000000,316.663696 
	C316.000000,312.969727 316.000000,309.224823 316.000000,304.983582 
z"/>
<path fill="#A56DD9" opacity="1.000000" stroke="none" 
	d="
M181.155365,386.999908 
	C179.239517,386.888184 177.804947,386.776581 176.287598,386.658508 
	C176.287598,363.027313 176.287598,339.801117 176.287598,316.288147 
	C199.800049,316.288147 223.026337,316.288147 246.626801,316.288147 
	C246.626801,339.747406 246.626801,363.091370 246.626801,387.000000 
	C224.823349,387.000000 203.230011,387.000000 181.155365,386.999908 
z"/>
</svg>